<svg width="816" height="768" xmlns="http://www.w3.org/2000/svg" xmlns:xlink="http://www.w3.org/1999/xlink" xml:space="preserve" overflow="hidden"><g transform="translate(-2681 -760)"><path d="M3006 843.5C3006 797.384 3043.16 760 3089 760 3134.84 760 3172 797.384 3172 843.5 3172 889.616 3134.84 927 3089 927 3043.16 927 3006 889.616 3006 843.5Z" fill="#BDF2FF" fill-rule="evenodd"/><rect x="3067" y="875" width="44" height="567" fill="#005A70"/><path d="M3017 843.5C3017 804.012 3049.24 772 3089 772 3128.76 772 3161 804.012 3161 843.5 3161 882.988 3128.76 915 3089 915 3049.24 915 3017 882.988 3017 843.5Z" fill="#00A5CC" fill-rule="evenodd"/><path d="M2681 1230.74C2681 1201.61 2704.61 1178 2733.74 1178L3444.26 1178C3473.39 1178 3497 1201.61 3497 1230.74L3497 1303.26C3497 1332.39 3473.39 1356 3444.26 1356L2733.74 1356C2704.61 1356 2681 1332.39 2681 1303.26Z" fill="#005A70" fill-rule="evenodd"/><path d="M3033 845C3033 814.072 3058.07 789 3089 789 3119.93 789 3145 814.072 3145 845 3145 875.928 3119.93 901 3089 901 3058.07 901 3033 875.928 3033 845Z" fill="#0083A3" fill-rule="evenodd"/><path d="M2770 1093.84C2770 1045.88 2808.88 1007 2856.84 1007L3320.16 1007C3368.12 1007 3407 1045.88 3407 1093.84L3407 1441.16C3407 1489.12 3368.12 1528 3320.16 1528L2856.84 1528C2808.88 1528 2770 1489.12 2770 1441.16Z" fill="#0083A3" fill-rule="evenodd"/><path d="M2872 1224.5C2872 1181.15 2907.15 1146 2950.5 1146 2993.85 1146 3029 1181.15 3029 1224.5 3029 1267.85 2993.85 1303 2950.5 1303 2907.15 1303 2872 1267.85 2872 1224.5Z" fill="#FFFFFF" fill-rule="evenodd"/><path d="M3151 1224.5C3151 1181.15 3185.92 1146 3229 1146 3272.08 1146 3307 1181.15 3307 1224.5 3307 1267.85 3272.08 1303 3229 1303 3185.92 1303 3151 1267.85 3151 1224.5Z" fill="#FFFFFF" fill-rule="evenodd"/><path d="M3165.37 1432.37C3123.19 1474.54 3054.81 1474.54 3012.63 1432.37 2990.59 1410.33 2979.15 1379.84 2981.24 1348.74Z" fill="#FFFFFF" fill-rule="evenodd"/></g></svg>